<mxfile host="app.diagrams.net" agent="Mozilla/5.0 (Windows NT 10.0; Win64; x64) AppleWebKit/537.36 (KHTML, like Gecko) Chrome/130.0.0.0 Safari/537.36" version="24.8.1">
  <diagram name="Page-1" id="7A1L_c6Km4Jq6MOc0nl-">
    <mxGraphModel dx="4818" dy="850" grid="1" gridSize="10" guides="1" tooltips="1" connect="1" arrows="1" fold="1" page="1" pageScale="1" pageWidth="3300" pageHeight="4681" math="0" shadow="0">
      <root>
        <mxCell id="0" />
        <mxCell id="1" parent="0" />
        <mxCell id="yxFoe6fvZe9r7iEHTFPZ-30" value="" style="rounded=0;whiteSpace=wrap;html=1;" vertex="1" parent="1">
          <mxGeometry x="-360" y="140" width="1280" height="810" as="geometry" />
        </mxCell>
        <mxCell id="yxFoe6fvZe9r7iEHTFPZ-31" style="edgeStyle=orthogonalEdgeStyle;rounded=0;orthogonalLoop=1;jettySize=auto;html=1;" edge="1" parent="1" source="yxFoe6fvZe9r7iEHTFPZ-33" target="yxFoe6fvZe9r7iEHTFPZ-35">
          <mxGeometry relative="1" as="geometry" />
        </mxCell>
        <mxCell id="yxFoe6fvZe9r7iEHTFPZ-32" style="edgeStyle=orthogonalEdgeStyle;rounded=0;orthogonalLoop=1;jettySize=auto;html=1;exitX=0.25;exitY=1;exitDx=0;exitDy=0;entryX=0.5;entryY=0;entryDx=0;entryDy=0;" edge="1" parent="1" source="yxFoe6fvZe9r7iEHTFPZ-33" target="yxFoe6fvZe9r7iEHTFPZ-44">
          <mxGeometry relative="1" as="geometry">
            <Array as="points">
              <mxPoint x="255" y="373" />
              <mxPoint x="150" y="373" />
              <mxPoint x="150" y="558" />
            </Array>
          </mxGeometry>
        </mxCell>
        <mxCell id="yxFoe6fvZe9r7iEHTFPZ-33" value="&lt;b&gt;&lt;font style=&quot;font-size: 15px;&quot;&gt;Pas fait&lt;/font&gt;&lt;/b&gt;" style="html=1;align=center;verticalAlign=top;rounded=1;absoluteArcSize=1;arcSize=10;dashed=0;whiteSpace=wrap;" vertex="1" parent="1">
          <mxGeometry x="220" y="293" width="140" height="40" as="geometry" />
        </mxCell>
        <mxCell id="yxFoe6fvZe9r7iEHTFPZ-34" value="" style="edgeStyle=orthogonalEdgeStyle;rounded=0;orthogonalLoop=1;jettySize=auto;html=1;" edge="1" parent="1" source="yxFoe6fvZe9r7iEHTFPZ-35" target="yxFoe6fvZe9r7iEHTFPZ-44">
          <mxGeometry relative="1" as="geometry" />
        </mxCell>
        <mxCell id="yxFoe6fvZe9r7iEHTFPZ-35" value="&lt;b&gt;&lt;font style=&quot;font-size: 15px;&quot;&gt;En Cours&lt;/font&gt;&lt;/b&gt;" style="html=1;align=center;verticalAlign=top;rounded=1;absoluteArcSize=1;arcSize=10;dashed=0;whiteSpace=wrap;" vertex="1" parent="1">
          <mxGeometry x="220" y="458" width="140" height="40" as="geometry" />
        </mxCell>
        <mxCell id="yxFoe6fvZe9r7iEHTFPZ-36" style="edgeStyle=orthogonalEdgeStyle;rounded=0;orthogonalLoop=1;jettySize=auto;html=1;entryX=0;entryY=0;entryDx=0;entryDy=0;" edge="1" parent="1" source="yxFoe6fvZe9r7iEHTFPZ-37" target="yxFoe6fvZe9r7iEHTFPZ-56">
          <mxGeometry relative="1" as="geometry" />
        </mxCell>
        <mxCell id="yxFoe6fvZe9r7iEHTFPZ-37" value="&lt;font style=&quot;font-size: 15px;&quot;&gt;&lt;b&gt;Fait&lt;/b&gt;&lt;/font&gt;" style="html=1;align=center;verticalAlign=top;rounded=1;absoluteArcSize=1;arcSize=10;dashed=0;whiteSpace=wrap;" vertex="1" parent="1">
          <mxGeometry x="30" y="718" width="140" height="40" as="geometry" />
        </mxCell>
        <mxCell id="yxFoe6fvZe9r7iEHTFPZ-38" style="edgeStyle=orthogonalEdgeStyle;rounded=0;orthogonalLoop=1;jettySize=auto;html=1;entryX=1;entryY=0;entryDx=0;entryDy=0;" edge="1" parent="1" source="yxFoe6fvZe9r7iEHTFPZ-39" target="yxFoe6fvZe9r7iEHTFPZ-56">
          <mxGeometry relative="1" as="geometry" />
        </mxCell>
        <mxCell id="yxFoe6fvZe9r7iEHTFPZ-39" value="&lt;font style=&quot;font-size: 15px;&quot;&gt;&lt;b&gt;Fait DLD&lt;/b&gt;&lt;/font&gt;" style="html=1;align=center;verticalAlign=top;rounded=1;absoluteArcSize=1;arcSize=10;dashed=0;whiteSpace=wrap;" vertex="1" parent="1">
          <mxGeometry x="390" y="718" width="140" height="40" as="geometry" />
        </mxCell>
        <mxCell id="yxFoe6fvZe9r7iEHTFPZ-40" style="edgeStyle=orthogonalEdgeStyle;rounded=0;orthogonalLoop=1;jettySize=auto;html=1;entryX=0;entryY=0.5;entryDx=0;entryDy=0;" edge="1" parent="1" source="yxFoe6fvZe9r7iEHTFPZ-41" target="yxFoe6fvZe9r7iEHTFPZ-33">
          <mxGeometry relative="1" as="geometry" />
        </mxCell>
        <mxCell id="yxFoe6fvZe9r7iEHTFPZ-41" value="" style="ellipse;html=1;shape=endState;fillColor=strokeColor;" vertex="1" parent="1">
          <mxGeometry x="80" y="298" width="30" height="30" as="geometry" />
        </mxCell>
        <mxCell id="yxFoe6fvZe9r7iEHTFPZ-42" style="edgeStyle=orthogonalEdgeStyle;rounded=0;orthogonalLoop=1;jettySize=auto;html=1;entryX=0.5;entryY=0;entryDx=0;entryDy=0;" edge="1" parent="1" source="yxFoe6fvZe9r7iEHTFPZ-44" target="yxFoe6fvZe9r7iEHTFPZ-37">
          <mxGeometry relative="1" as="geometry" />
        </mxCell>
        <mxCell id="yxFoe6fvZe9r7iEHTFPZ-43" style="edgeStyle=orthogonalEdgeStyle;rounded=0;orthogonalLoop=1;jettySize=auto;html=1;" edge="1" parent="1" source="yxFoe6fvZe9r7iEHTFPZ-44" target="yxFoe6fvZe9r7iEHTFPZ-39">
          <mxGeometry relative="1" as="geometry" />
        </mxCell>
        <mxCell id="yxFoe6fvZe9r7iEHTFPZ-44" value="" style="rhombus;whiteSpace=wrap;html=1;verticalAlign=top;rounded=1;arcSize=10;dashed=0;" vertex="1" parent="1">
          <mxGeometry x="250" y="558" width="80" height="80" as="geometry" />
        </mxCell>
        <mxCell id="yxFoe6fvZe9r7iEHTFPZ-45" style="edgeStyle=orthogonalEdgeStyle;rounded=0;orthogonalLoop=1;jettySize=auto;html=1;exitX=0.25;exitY=0;exitDx=0;exitDy=0;entryX=1;entryY=0.75;entryDx=0;entryDy=0;" edge="1" parent="1" source="yxFoe6fvZe9r7iEHTFPZ-33" target="yxFoe6fvZe9r7iEHTFPZ-33">
          <mxGeometry relative="1" as="geometry">
            <mxPoint x="370" y="298" as="sourcePoint" />
            <Array as="points">
              <mxPoint x="255" y="228" />
              <mxPoint x="400" y="228" />
              <mxPoint x="400" y="323" />
            </Array>
          </mxGeometry>
        </mxCell>
        <mxCell id="yxFoe6fvZe9r7iEHTFPZ-46" value="&lt;span style=&quot;font-weight: normal;&quot;&gt;Nouvelle Mise En OEuvre Avec Statut &lt;/span&gt;Fait" style="text;align=center;fontStyle=1;verticalAlign=middle;spacingLeft=3;spacingRight=3;strokeColor=none;rotatable=0;points=[[0,0.5],[1,0.5]];portConstraint=eastwest;html=1;" vertex="1" parent="1">
          <mxGeometry x="390" y="267" width="260" height="26" as="geometry" />
        </mxCell>
        <mxCell id="yxFoe6fvZe9r7iEHTFPZ-47" value="&lt;span style=&quot;font-weight: normal;&quot;&gt;Nouvelle Mise En OEuvre Avec Statut &lt;/span&gt;En Cours" style="text;align=center;fontStyle=1;verticalAlign=middle;spacingLeft=3;spacingRight=3;strokeColor=none;rotatable=0;points=[[0,0.5],[1,0.5]];portConstraint=eastwest;html=1;" vertex="1" parent="1">
          <mxGeometry x="290" y="383" width="260" height="26" as="geometry" />
        </mxCell>
        <mxCell id="yxFoe6fvZe9r7iEHTFPZ-48" value="&lt;span style=&quot;font-weight: normal;&quot;&gt;Nouvelle Mise En OEuvre Avec Statut &lt;/span&gt;Fait DLD" style="text;align=center;fontStyle=1;verticalAlign=middle;spacingLeft=3;spacingRight=3;strokeColor=none;rotatable=0;points=[[0,0.5],[1,0.5]];portConstraint=eastwest;html=1;" vertex="1" parent="1">
          <mxGeometry x="340" y="573" width="260" height="26" as="geometry" />
        </mxCell>
        <mxCell id="yxFoe6fvZe9r7iEHTFPZ-49" value="&lt;span style=&quot;font-weight: normal;&quot;&gt;Nouvelle Mise En OEuvre Avec Statut &lt;/span&gt;Fait" style="text;align=center;fontStyle=1;verticalAlign=middle;spacingLeft=3;spacingRight=3;strokeColor=none;rotatable=0;points=[[0,0.5],[1,0.5]];portConstraint=eastwest;html=1;" vertex="1" parent="1">
          <mxGeometry x="-20" y="573" width="260" height="26" as="geometry" />
        </mxCell>
        <mxCell id="yxFoe6fvZe9r7iEHTFPZ-50" style="edgeStyle=orthogonalEdgeStyle;rounded=0;orthogonalLoop=1;jettySize=auto;html=1;entryX=1;entryY=0.5;entryDx=0;entryDy=0;" edge="1" parent="1" source="yxFoe6fvZe9r7iEHTFPZ-35" target="yxFoe6fvZe9r7iEHTFPZ-35">
          <mxGeometry relative="1" as="geometry">
            <Array as="points">
              <mxPoint x="320" y="438" />
              <mxPoint x="420" y="438" />
              <mxPoint x="420" y="478" />
            </Array>
          </mxGeometry>
        </mxCell>
        <mxCell id="yxFoe6fvZe9r7iEHTFPZ-51" value="&lt;span style=&quot;font-weight: normal;&quot;&gt;Nouvelle Mise En OEuvre Avec Statut &lt;/span&gt;En Cours" style="text;align=center;fontStyle=1;verticalAlign=middle;spacingLeft=3;spacingRight=3;strokeColor=none;rotatable=0;points=[[0,0.5],[1,0.5]];portConstraint=eastwest;html=1;" vertex="1" parent="1">
          <mxGeometry x="420" y="443" width="260" height="26" as="geometry" />
        </mxCell>
        <mxCell id="yxFoe6fvZe9r7iEHTFPZ-52" style="edgeStyle=orthogonalEdgeStyle;rounded=0;orthogonalLoop=1;jettySize=auto;html=1;entryX=0;entryY=0.5;entryDx=0;entryDy=0;" edge="1" parent="1" source="yxFoe6fvZe9r7iEHTFPZ-37" target="yxFoe6fvZe9r7iEHTFPZ-37">
          <mxGeometry relative="1" as="geometry">
            <Array as="points">
              <mxPoint x="50" y="698" />
              <mxPoint x="-20" y="698" />
              <mxPoint x="-20" y="738" />
            </Array>
          </mxGeometry>
        </mxCell>
        <mxCell id="yxFoe6fvZe9r7iEHTFPZ-53" style="edgeStyle=orthogonalEdgeStyle;rounded=0;orthogonalLoop=1;jettySize=auto;html=1;exitX=0.75;exitY=0;exitDx=0;exitDy=0;entryX=1;entryY=0.5;entryDx=0;entryDy=0;" edge="1" parent="1" source="yxFoe6fvZe9r7iEHTFPZ-39" target="yxFoe6fvZe9r7iEHTFPZ-39">
          <mxGeometry relative="1" as="geometry">
            <Array as="points">
              <mxPoint x="495" y="698" />
              <mxPoint x="570" y="698" />
              <mxPoint x="570" y="738" />
            </Array>
          </mxGeometry>
        </mxCell>
        <mxCell id="yxFoe6fvZe9r7iEHTFPZ-54" value="&lt;span style=&quot;font-weight: normal;&quot;&gt;Nouvelle Mise En OEuvre Avec Statut &lt;/span&gt;Fait" style="text;align=center;fontStyle=1;verticalAlign=middle;spacingLeft=3;spacingRight=3;strokeColor=none;rotatable=0;points=[[0,0.5],[1,0.5]];portConstraint=eastwest;html=1;" vertex="1" parent="1">
          <mxGeometry x="-270" y="703" width="260" height="26" as="geometry" />
        </mxCell>
        <mxCell id="yxFoe6fvZe9r7iEHTFPZ-55" value="&lt;span style=&quot;font-weight: normal;&quot;&gt;Nouvelle Mise En OEuvre Avec Statut &lt;/span&gt;Fait DLD" style="text;align=center;fontStyle=1;verticalAlign=middle;spacingLeft=3;spacingRight=3;strokeColor=none;rotatable=0;points=[[0,0.5],[1,0.5]];portConstraint=eastwest;html=1;" vertex="1" parent="1">
          <mxGeometry x="570" y="703" width="260" height="26" as="geometry" />
        </mxCell>
        <mxCell id="yxFoe6fvZe9r7iEHTFPZ-56" value="" style="shape=sumEllipse;perimeter=ellipsePerimeter;html=1;backgroundOutline=1;" vertex="1" parent="1">
          <mxGeometry x="270" y="853" width="30" height="30" as="geometry" />
        </mxCell>
        <mxCell id="yxFoe6fvZe9r7iEHTFPZ-57" value="SEq : Etat transition instruction validee" style="shape=umlFrame;whiteSpace=wrap;html=1;pointerEvents=0;recursiveResize=0;container=1;collapsible=0;width=260;height=40;" vertex="1" parent="1">
          <mxGeometry x="-320" y="200" width="1190" height="710" as="geometry" />
        </mxCell>
      </root>
    </mxGraphModel>
  </diagram>
</mxfile>
